<?xml version="1.0" encoding="UTF-8" standalone="no"?>
<!-- Created with Inkscape (http://www.inkscape.org/) -->

<svg
   xmlns:dc="http://purl.org/dc/elements/1.1/"
   xmlns:cc="http://creativecommons.org/ns#"
   xmlns:rdf="http://www.w3.org/1999/02/22-rdf-syntax-ns#"
   xmlns:svg="http://www.w3.org/2000/svg"
   xmlns="http://www.w3.org/2000/svg"
   xmlns:sodipodi="http://sodipodi.sourceforge.net/DTD/sodipodi-0.dtd"
   xmlns:inkscape="http://www.inkscape.org/namespaces/inkscape"
   width="300"
   height="330.94009"
   id="svg2"
   version="1.1"
   inkscape:version="0.48.4 r9939"
   sodipodi:docname="joise export.svg">
  <defs
     id="defs4" />
  <sodipodi:namedview
     id="base"
     pagecolor="#ffffff"
     bordercolor="#666666"
     borderopacity="1.0"
     inkscape:pageopacity="0.0"
     inkscape:pageshadow="2"
     inkscape:zoom="2"
     inkscape:cx="127.25"
     inkscape:cy="174.5"
     inkscape:document-units="px"
     inkscape:current-layer="layer1"
     showgrid="false"
     showguides="true"
     inkscape:guide-bbox="true"
     inkscape:snap-global="true"
     inkscape:snap-from-guide="true"
     guidetolerance="10000"
     objecttolerance="10000"
     inkscape:snap-bbox="true"
     inkscape:bbox-paths="false"
     inkscape:snap-bbox-edge-midpoints="true"
     inkscape:snap-bbox-midpoints="false"
     fit-margin-top="50"
     fit-margin-left="50"
     fit-margin-bottom="50"
     fit-margin-right="50"
     inkscape:window-width="1366"
     inkscape:window-height="715"
     inkscape:window-x="-8"
     inkscape:window-y="-8"
     inkscape:window-maximized="1"
     inkscape:bbox-nodes="true">
    <inkscape:grid
       type="xygrid"
       id="grid3027"
       empspacing="4"
       visible="true"
       enabled="true"
       snapvisiblegridlinesonly="true"
       spacingx="25px"
       spacingy="25px"
       originx="-89.630674px"
       originy="-555.08107px" />
  </sodipodi:namedview>
  <metadata
     id="metadata7">
    <rdf:RDF>
      <cc:Work
         rdf:about="">
        <dc:format>image/svg+xml</dc:format>
        <dc:type
           rdf:resource="http://purl.org/dc/dcmitype/StillImage" />
        <dc:title></dc:title>
      </cc:Work>
    </rdf:RDF>
  </metadata>
  <g
     inkscape:label="Layer 1"
     inkscape:groupmode="layer"
     id="layer1"
     transform="translate(-89.630674,-166.34101)">
    <g
       id="g3786"
       transform="matrix(0.5,0.8660254,-0.8660254,0.5,408.73627,-36.67622)">
      <path
         id="path3037-8"
         transform="translate(89.630674,166.34101)"
         d="m 93.4375,103.0625 -25,14.4375 0,28.875 25,14.4375 25,-14.4375 0,-5.1875 -11.59375,0 -3,0 0,-3 0,-12.5 0,-3 3,0 11.59375,0 0,-5.1875 -25,-14.4375 z m 16.40625,25.625 0,6.5 8.59375,0 0,-6.5 -8.59375,0 z"
         style="fill:#4362a8;fill-opacity:1;stroke:none"
         inkscape:connector-curvature="0" />
      <path
         id="path3037"
         transform="translate(89.630674,166.34101)"
         d="m 199.5625,177.75 -25,14.4375 0,4.53125 16.96875,9.90625 -16.96875,9.90625 0,4.53125 25,14.4375 25,-14.4375 0,-28.875 -25,-14.4375 z"
         style="fill:#4362a8;fill-opacity:1;stroke:none"
         inkscape:connector-curvature="0" />
      <path
         id="path2985-7-1"
         transform="translate(89.630674,166.34101)"
         d="m 124.625,163.84375 -37.5,21.65625 0,43.28125 37.5,21.65625 37.5,-21.65625 0,-12.90625 -12.5,0 0,5.6875 -25,14.4375 -25,-14.4375 0,-28.84375 25,-14.4375 25,14.4375 0,4.65625 12.5,0 0,-11.875 -37.5,-21.65625 z"
         style="fill:#4362a8;fill-opacity:1;stroke:none"
         inkscape:connector-curvature="0" />
      <path
         inkscape:connector-curvature="0"
         id="path3787"
         d="m 214.25,366.71875 0,12.5 49.0625,0 0,-12.5 -49.0625,0 z"
         style="font-size:medium;font-style:normal;font-variant:normal;font-weight:normal;font-stretch:normal;text-indent:0;text-align:start;text-decoration:none;line-height:normal;letter-spacing:normal;word-spacing:normal;text-transform:none;direction:ltr;block-progression:tb;writing-mode:lr-tb;text-anchor:start;baseline-shift:baseline;color:#000000;fill:#4362a8;fill-opacity:1;stroke:none;stroke-width:12.5;marker:none;visibility:visible;display:inline;overflow:visible;enable-background:accumulate;font-family:Sans;-inkscape-font-specification:Sans" />
      <path
         inkscape:transform-center-x="-3.5653765"
         transform="matrix(1.7689173,0,0,1.7902872,-104.40271,28.447103)"
         d="m 202.96887,199.42221 0,-13.96424 12.09339,6.98212 z"
         inkscape:randomized="0"
         inkscape:rounded="0"
         inkscape:flatsided="true"
         sodipodi:arg2="3.1415927"
         sodipodi:arg1="2.0943951"
         sodipodi:r2="4.0311289"
         sodipodi:r1="8.0622578"
         sodipodi:cy="192.44009"
         sodipodi:cx="207"
         sodipodi:sides="3"
         id="path3789"
         style="fill:#4362a8;fill-opacity:1;stroke:none"
         sodipodi:type="star" />
      <path
         id="path2985-7-1-4"
         transform="translate(89.630674,166.34101)"
         d="m 168.40625,88.15625 -37.5,21.65625 0,12.875 12.5,0 0,-5.65625 25,-14.4375 25,14.4375 0,28.84375 -25,14.4375 -25,-14.4375 0,-4.6875 -12.5,0 0,11.90625 37.5,21.65625 37.5,-21.65625 0,-43.28125 -37.5,-21.65625 z"
         style="fill:#4362a8;fill-opacity:1;stroke:none"
         inkscape:connector-curvature="0" />
      <path
         inkscape:transform-center-y="0.03760705"
         inkscape:transform-center-x="-3.5975529"
         transform="matrix(-0.89244823,-1.5457657,1.5644397,-0.9032297,127.19086,792.36034)"
         d="m 202.96887,199.42221 0,-13.96424 12.09339,6.98212 z"
         inkscape:randomized="0"
         inkscape:rounded="0"
         inkscape:flatsided="true"
         sodipodi:arg2="3.1415927"
         sodipodi:arg1="2.0943951"
         sodipodi:r2="4.0311289"
         sodipodi:r1="8.0622578"
         sodipodi:cy="192.44009"
         sodipodi:cx="207"
         sodipodi:sides="3"
         id="path3789-4"
         style="fill:#4362a8;fill-opacity:1;stroke:none"
         sodipodi:type="star" />
      <path
         style="font-size:medium;font-style:normal;font-variant:normal;font-weight:normal;font-stretch:normal;text-indent:0;text-align:start;text-decoration:none;line-height:normal;letter-spacing:normal;word-spacing:normal;text-transform:none;direction:ltr;block-progression:tb;writing-mode:lr-tb;text-anchor:start;baseline-shift:baseline;color:#000000;fill:#4362a8;fill-opacity:1;stroke:none;stroke-width:12.5;marker:none;visibility:visible;display:inline;overflow:visible;enable-background:accumulate;font-family:Sans;-inkscape-font-specification:Sans"
         d="m 196.46875,292.03125 0,12.5 49.0625,0 0,-12.5 -49.0625,0 z"
         id="path3768"
         inkscape:connector-curvature="0" />
    </g>
  </g>
</svg>
